<svg data-v-423bf9ae="" xmlns="http://www.w3.org/2000/svg" viewBox="0 0 344 90" class="iconLeft"><!----><!----><!----><g data-v-423bf9ae="" id="b345e954-cb34-4161-a36b-074a17c539d3" fill="#FF621A" transform="matrix(4.922067165374756,0,0,4.922067165374756,105.8654556274414,-3.2116482257843018)"><path d="M5.22 5.95L5.22 13.61L7.06 13.61C7.25 13.61 7.41 13.73 7.41 13.89L7.41 15.53C7.41 15.68 7.25 15.81 7.06 15.81L1.12 15.81C0.97 15.81 0.84 15.68 0.84 15.53L0.84 13.89C0.84 13.73 0.97 13.61 1.12 13.61L3.02 13.61L3.02 5.95L1.12 5.95C0.97 5.95 0.84 5.84 0.84 5.68L0.84 4.05C0.84 3.89 0.97 3.77 1.12 3.77L7.06 3.77C7.25 3.77 7.41 3.89 7.41 4.05L7.41 5.68C7.41 5.84 7.25 5.95 7.06 5.95ZM9.23 3.79L13.80 8.37L18.38 3.79L18.38 15.54C18.38 15.69 18.27 15.82 18.12 15.82L16.51 15.82C16.35 15.82 16.23 15.69 16.23 15.54L16.23 8.99L13.80 11.41L11.38 8.99L11.38 15.54C11.38 15.69 11.27 15.82 11.12 15.82L9.49 15.82C9.35 15.82 9.23 15.69 9.23 15.54ZM28.62 15.37L26.39 11.42L26.08 10.89L26.01 10.77C28.04 10.32 29.09 8.82 29.09 7.35C29.09 6.38 28.64 5.46 27.87 4.82C27.09 4.14 25.98 3.79 24.71 3.79L20.62 3.79C20.47 3.79 20.34 3.92 20.34 4.06L20.34 5.17L20.48 5.42L20.48 5.43L22.34 8.71L20.34 8.71L20.34 15.54C20.34 15.69 20.47 15.82 20.62 15.82L22.26 15.82C22.40 15.82 22.53 15.69 22.53 15.54L22.53 10.89L23.58 10.89L23.87 11.42L26.26 15.65L26.29 15.69C26.33 15.76 26.42 15.82 26.52 15.82L28.39 15.82C28.55 15.82 28.66 15.69 28.66 15.53C28.66 15.48 28.66 15.44 28.63 15.40ZM24.56 8.19L23.31 5.98L24.71 5.98C26.22 5.98 26.89 6.69 26.89 7.35C26.89 7.91 26.39 8.53 25.26 8.68C25.13 8.69 24.99 8.71 24.85 8.71ZM38.35 11.16C38.35 11.00 38.22 10.89 38.07 10.89L37.14 10.89L35.43 4.05L35.42 3.98C35.38 3.88 35.28 3.81 35.17 3.81L33.33 3.81C33.22 3.81 33.12 3.88 33.08 3.98L33.07 4.06L30.23 15.41C30.23 15.43 30.23 15.44 30.21 15.44L30.21 15.50C30.21 15.67 30.34 15.79 30.48 15.79L32.17 15.79C32.28 15.79 32.40 15.71 32.42 15.60C32.42 15.58 32.44 15.57 32.44 15.57L33.05 13.06L35.45 13.06L36.06 15.55L36.08 15.60C36.12 15.71 36.22 15.79 36.33 15.79L38.02 15.79C38.18 15.79 38.29 15.67 38.29 15.50L38.29 15.47L38.28 15.40L37.69 13.06L38.07 13.06C38.22 13.06 38.35 12.95 38.35 12.80ZM33.60 10.89L34.26 8.30L34.90 10.89ZM48.37 15.89L42.35 9.32L42.35 15.53C42.35 15.68 42.24 15.81 42.08 15.81L40.45 15.81C40.29 15.81 40.17 15.68 40.17 15.53L40.17 3.70L46.19 10.26L46.19 4.06C46.19 3.91 46.31 3.78 46.45 3.78L48.10 3.78C48.24 3.78 48.37 3.91 48.37 4.06Z"></path></g><!----><g data-v-423bf9ae="" id="42779958-adff-4785-a976-1331239137dc" transform="matrix(2.8125,0,0,2.8125,0,0)" stroke="none" fill="#FF621A"><path d="M16 1c8.271 0 15 6.729 15 15s-6.729 15-15 15S1 24.271 1 16 7.729 1 16 1m0-1C7.163 0 0 7.163 0 16s7.163 16 16 16 16-7.163 16-16S24.837 0 16 0z"></path><path d="M16 7.045L24.955 16 16 24.955 7.045 16 16 7.045m0-1.414L5.631 16 16 26.369 26.369 16 16 5.631z"></path></g><!----></svg>